<svg xmlns="http://www.w3.org/2000/svg" width="290.001" height="177.001" viewBox="0 0 290.001 177.001">
  <g id="recommend1" transform="translate(-426 -797)">
    <text id="_100_des_personnes_recommandent_cette_conférence" data-name="100%
  
des personnes recommandent 
cette conférence" transform="translate(478 820.799)" fill="#1a2123" font-size="50" font-family="Arial-BoldMT, Arial" font-weight="700"><tspan x="31.31" y="45">100%</tspan><tspan font-size="10" font-family="Raleway-Regular, Raleway" font-weight="400"><tspan x="95.25" y="67" xml:space="preserve">  </tspan></tspan><tspan font-size="17" font-family="Raleway-Regular, Raleway" font-weight="400"><tspan x="37.314" y="85">des personnes </tspan><tspan x="34.483" y="105">recommandent </tspan><tspan x="28.244" y="125">cette conférence</tspan></tspan></text>
    <g id="Objet_dynamique_vectoriel" data-name="Objet dynamique vectoriel">
      <g id="Objet_dynamique_vectoriel-2" data-name="Objet dynamique vectoriel" transform="translate(426 797)">
        <path id="Path_503" data-name="Path 503" d="M256.637,141.422l10.791-19.054,4.492-25.761L269.6,72.145l-8.306-26.937-6.652-13.432-11.219-14.1-1.455-1.761-.705-.789-4.247-3.283,4.881,5.8,11.358,13.99,6.785,13.369L268.6,71.862,271.162,96.3l-4.235,25.8-10.6,19.158-9.711,13.08-13.868,9.777,14.061-9.71Z" fill="#f7f5ff"/>
        <path id="Path_504" data-name="Path 504" d="M243.424,17.677l11.219,14.1L261.3,45.209l8.3,26.937,2.32,24.461-4.494,25.761-10.789,19.054L246.8,154.408l-14.061,9.71-.284.2-15.021,8.21-9.606,4.284,3.562.188,7.891-3.238L233.727,167l0,0,16.809-14.365,10.293-13.242,7.109-14.743,5.135-20.975-.739-18.793-3-19.675-5.624-17.134-11.208-20.49-10.54-11.664Z" fill="#c4cfc2"/>
        <path id="Path_505" data-name="Path 505" d="M233.561,136.054l-7.012,16.472.3,8.82.924.933,5.869-24.393Z" fill="#91968c"/>
        <path id="Path_506" data-name="Path 506" d="M234.46,155.279l.009-.043-.823-17.351-5.869,24.393,2.309,2.346Z" fill="#f5f5fa"/>
        <path id="Path_507" data-name="Path 507" d="M231.228,165.785l3.233-10.506-4.374,9.346Z" fill="#757a7d"/>
        <path id="Path_508" data-name="Path 508" d="M241.58,129.581l-3.425,13.983.442,2.863,4.877-10.439Z" fill="#f5f5fa"/>
        <path id="Path_509" data-name="Path 509" d="M242.353,156.683l1.209.942.533-2.913Z" fill="#828075"/>
        <path id="Path_510" data-name="Path 510" d="M242.353,156.683l1.742-1.971,1.618-8.839-2.178-9.682-.062-.205-4.881,10.441,1.278,8.328Z" fill="#91968c"/>
        <path id="Path_511" data-name="Path 511" d="M246.914,122.972l-.133,5.935,1.875-4.008Z" fill="#f5f5fa"/>
        <path id="Path_512" data-name="Path 512" d="M254.068,147.649l-.112-4.118-2.385,2.708Z" fill="#828075"/>
        <path id="Path_513" data-name="Path 513" d="M249.217,144.906l2.352,1.334,2.387-2.708-.146-5.653-3.627-11.291-1.528-1.688-1.873,4.006-.148,6.683Z" fill="#91968c"/>
        <path id="Path_514" data-name="Path 514" d="M251.557,113.318l-.632-.852.142,1.41.486,4.827,1.549-3.314Z" fill="#f5f5fa"/>
        <path id="Path_515" data-name="Path 515" d="M254.554,131.027l5.99,2.99-1.018-10.006-6.424-8.622-1.551,3.314.38,3.766Z" fill="#91968c"/>
        <path id="Path_516" data-name="Path 516" d="M260.753,108.918l-6.667-5.476,2.453,8.445.148.494,2.7,3.643,2.316,3.124,2.09,1.181Z" fill="#f7f5ff"/>
        <path id="Path_517" data-name="Path 517" d="M266.632,121.325h0l-4.08-10.933-1.8-1.473,3.044,11.411,2.5,1.423.63.351Z" fill="#61665e"/>
        <path id="Path_518" data-name="Path 518" d="M257.029,94.946l1.21,4.541,9.67,3.788-2.1-3.812Z" fill="#828075"/>
        <path id="Path_519" data-name="Path 519" d="M259.252,103.284l6.138,4.193,4.976.263-2.456-4.465-9.67-3.788Z" fill="#61665e"/>
        <path id="Path_520" data-name="Path 520" d="M257.029,94.946l-2.8-1.447,2.591,5.433,1.424.556Z" fill="#f7f5ff"/>
        <path id="Path_521" data-name="Path 521" d="M256.816,98.931l1.9,3.989.531.364-1.01-3.8Z" fill="#757a7d"/>
        <path id="Path_522" data-name="Path 522" d="M266.561,88.79l-2.382-2.042-4.789-2.081,3.077,5.084Z" fill="#91968c"/>
        <path id="Path_523" data-name="Path 523" d="M264.6,93.278l7.661.4-5.7-4.888-4.1.959Z" fill="#61665e"/>
        <path id="Path_524" data-name="Path 524" d="M259.153,90.524l2,2.574,3.448.181-2.135-3.529Z" fill="#828075"/>
        <path id="Path_525" data-name="Path 525" d="M259.39,84.666l-5.768-2.5-1.455-.632,1.959,2.522,5.029,6.474,3.313-.774Z" fill="#e8ebe0"/>
        <path id="Path_526" data-name="Path 526" d="M249,72.37l9.378,7.759,2.376.649-1.818-7.626Z" fill="#e8ebe0"/>
        <path id="Path_527" data-name="Path 527" d="M260.753,80.778l1.678.453.412-7.772-3.908-.308Z" fill="#91968c"/>
        <path id="Path_528" data-name="Path 528" d="M267.087,82.5l3.47-3.838L263.338,73.5l-.5-.041-.41,7.772Z" fill="#828075"/>
        <path id="Path_529" data-name="Path 529" d="M247.58,60.278l-.673,1.449L250.015,64l.526.283,1.31-3.723Z" fill="#f7f5ff"/>
        <path id="Path_530" data-name="Path 530" d="M246.906,61.728l.673-1.451-2.928-.192Z" fill="#c4cfc2"/>
        <path id="Path_531" data-name="Path 531" d="M251.85,60.562l-1.31,3.721,7.216,3.911-1.751-7.358Z" fill="#cfc9c7"/>
        <path id="Path_532" data-name="Path 532" d="M256.006,60.837l1.751,7.356.471.256,4.933-1.117.168-3.24-5.094-3.105Z" fill="#91968c"/>
        <path id="Path_533" data-name="Path 533" d="M267.163,66.427l-3.831-2.335-.17,3.24Z" fill="#828075"/>
        <path id="Path_534" data-name="Path 534" d="M240.29,48.184l7.4,5.362,3.99,1.179-6.767-7.018Z" fill="#c4cfc2"/>
        <path id="Path_535" data-name="Path 535" d="M257.894,56.566l5.953-3.71-2.585-1.585-5.019,4.8Z" fill="#828075"/>
        <path id="Path_536" data-name="Path 536" d="M249.1,47.272l-4.191.435,6.769,7.022,1.553.459Z" fill="#f7f5ff"/>
        <path id="Path_537" data-name="Path 537" d="M250.136,47.168l-1.036.1,4.131,7.915,3.01.888,5.019-4.8-3.553-2.182Z" fill="#cfc9c7"/>
        <path id="Path_538" data-name="Path 538" d="M239.394,37.425l1.321,3.26,1.085.686,4.875,1.263-2.845-5.448Z" fill="#f7f5ff"/>
        <path id="Path_539" data-name="Path 539" d="M235.852,37.619l4.864,3.068-1.321-3.262Z" fill="#c4cfc2"/>
        <path id="Path_540" data-name="Path 540" d="M258.926,40.544l-7.313-3.251-4.98-.259-2.8.151,2.847,5.45,4.4,1.138Z" fill="#cfc9c7"/>
        <path id="Path_541" data-name="Path 541" d="M241.307,32.351l-2.181-4.172-.836-.481L235.38,27.5l1.192,2.945,1.9,1.181Z" fill="#f7f5ff"/>
        <path id="Path_542" data-name="Path 542" d="M231.409,27.242l5.163,3.208-1.192-2.945Z" fill="#c4cfc2"/>
        <path id="Path_543" data-name="Path 543" d="M241.307,32.351l4.744,1.2,2.034-.265-8.959-5.112Z" fill="#cfc9c7"/>
        <path id="Path_544" data-name="Path 544" d="M252.908,30.854l-7.726-2.7-6.284-.418.228.44,8.957,5.114,3.182-.418Z" fill="#91968c"/>
        <path id="Path_545" data-name="Path 545" d="M239.125,28.178l-.228-.44-.608-.039Z" fill="#e8ebe0"/>
        <path id="Path_546" data-name="Path 546" d="M233.706,17.795l-2.3-.119,1.255,3.105,3.051.862Z" fill="#f7f5ff"/>
        <path id="Path_547" data-name="Path 547" d="M226.932,17.442l3.315,2.66,2.413.679-1.253-3.105Z" fill="#c4cfc2"/>
        <path id="Path_548" data-name="Path 548" d="M243.178,22.5l1.878-1.688-.247-.259-6.963-2.542-4.14-.214,2.009,3.848,2.853.809Z" fill="#91968c"/>
        <path id="Path_549" data-name="Path 549" d="M245.057,20.811l.137-.121-.384-.138Z" fill="#e8ebe0"/>
        <path id="Path_550" data-name="Path 550" d="M249.949,174.8l5.885-2.374-5.072-2.626-2.344,5.015Z" fill="#61665e"/>
        <path id="Path_551" data-name="Path 551" d="M243.5,166.045l-1.817.209-7.8,4.916.877.8L245,166.821Z" fill="#f5f5fa"/>
        <path id="Path_552" data-name="Path 552" d="M234.764,171.97l3.279,2.975,10.375-.129,2.344-5.013L245,166.821Z" fill="#91968c"/>
        <path id="Path_553" data-name="Path 553" d="M233.011,167.275l-3.031.358L231.492,169l2.393,2.167,7.8-4.916Z" fill="#757a7d"/>
        <path id="Path_554" data-name="Path 554" d="M254.359,162.107l9.393-4.728-2.479-.742-4.222-.076-.137.09Z" fill="#f7f5ff"/>
        <path id="Path_555" data-name="Path 555" d="M253.7,163.519l5.676-.091,9.642-4.472-5.266-1.576-9.393,4.728Z" fill="#61665e"/>
        <path id="Path_556" data-name="Path 556" d="M248.237,163.61l3.244-.054,2.879-1.449,2.554-5.457L247.16,162.8Z" fill="#f5f5fa"/>
        <path id="Path_557" data-name="Path 557" d="M251.482,163.555l2.219-.037.659-1.412Z" fill="#91968c"/>
        <path id="Path_558" data-name="Path 558" d="M256.954,156.559l-6.806-.119-7.638,2.852,4.651,3.51,9.754-6.151.137-.09Z" fill="#757a7d"/>
        <path id="Path_559" data-name="Path 559" d="M266.5,152.128l11.5-6.863-2.443-.377-11.5,7.263Z" fill="#61665e"/>
        <path id="Path_560" data-name="Path 560" d="M264.279,143.209l-1.358.589-3.927,8.4,5.055-.05,11.5-7.263-3.274-.5Z" fill="#91968c"/>
        <path id="Path_561" data-name="Path 561" d="M252.876,148.352l4.4,3.864,1.716-.015,3.929-8.4-8.854,3.85Z" fill="#e8ebe0"/>
        <path id="Path_562" data-name="Path 562" d="M281.1,128.476l1.9,1.669,1.644-1.757Z" fill="#61665e"/>
        <path id="Path_563" data-name="Path 563" d="M269.343,130.049l-3.852,8.244,2.084.686,10.763-3.84L283,130.146l-1.9-1.671-6.262.164Z" fill="#91968c"/>
        <path id="Path_564" data-name="Path 564" d="M268.027,130.388l-4.976,3.378-1.7,3.165,4.142,1.362,3.852-8.244Z" fill="#e8ebe0"/>
        <path id="Path_565" data-name="Path 565" d="M285.39,110.122l2.38.929,1.558-2.514Z" fill="#c4cfc2"/>
        <path id="Path_566" data-name="Path 566" d="M277.959,113.109l-.924.686,3.59,5.935,4.1-3.779,3.049-4.9-2.38-.929Z" fill="#91968c"/>
        <path id="Path_567" data-name="Path 567" d="M270.964,118.3l-2.769,5.213,9.459-1.039.344-.313-5.764-4.806Z" fill="#91968c"/>
        <path id="Path_568" data-name="Path 568" d="M272.233,117.353,278,122.159l2.628-2.43-3.59-5.933Z" fill="#e8ebe0"/>
        <path id="Path_569" data-name="Path 569" d="M277.811,107.153l1.435.56,2.092-.548,5.173-7,2.733-6.3-.645-.4Z" fill="#61665e"/>
        <path id="Path_570" data-name="Path 570" d="M288.6,93.462l-.717-.444-7.5,3.189-5.683,5.825-1.353,3.368,4.467,1.753Z" fill="#828075"/>
        <path id="Path_571" data-name="Path 571" d="M277.811,107.153l-4.467-1.751-.557,1.382,1.373,2.264,2.711-.712Z" fill="#e8ebe0"/>
        <path id="Path_572" data-name="Path 572" d="M289.493,92.333l-1.613.683.717.446.647.4L290,92.113Z" fill="#c4cfc2"/>
        <path id="Path_573" data-name="Path 573" d="M271.61,109.716l2.55-.668-1.375-2.264Z" fill="#91968c"/>
        <path id="Path_574" data-name="Path 574" d="M276.871,108.335l2.374-.623-1.435-.56Z" fill="#757a7d"/>
        <path id="Path_575" data-name="Path 575" d="M285.493,75.614l-2.587,2.059,2.2.539Z" fill="#828075"/>
        <path id="Path_576" data-name="Path 576" d="M283.77,84.765l.546-1.365.788-5.189-2.2-.539-4.623,3.691-2.569,4.088,1.4.871Z" fill="#c4cfc2"/>
        <path id="Path_577" data-name="Path 577" d="M272.3,96.551l8.48-4.34,1.158-2.889-4.823-3-2.29.537-.733,1.171Z" fill="#91968c"/>
        <path id="Path_578" data-name="Path 578" d="M277.116,86.322l4.823,3,1.832-4.556Z" fill="#f5f5fa"/>
        <path id="Path_579" data-name="Path 579" d="M274.827,86.859l2.29-.537-1.4-.871Z" fill="#757a7d"/>
        <path id="Path_580" data-name="Path 580" d="M282.883,57.043l-.614.552.524,1.132-.1,1.917.926-4.265Z" fill="#f7f5ff"/>
        <path id="Path_581" data-name="Path 581" d="M282.269,57.6l-6.7,6.019-.006.009,2.567,10.784,1.955-1.755L282.7,60.645l.1-1.919Z" fill="#c4cfc2"/>
        <path id="Path_582" data-name="Path 582" d="M272.293,71.1l-.874,9.331,6.709-6.022-2.565-10.782Z" fill="#91968c"/>
        <path id="Path_583" data-name="Path 583" d="M278.442,49.028l-.384-7.291-1.949,2.583,2.284,4.926Z" fill="#f7f5ff"/>
        <path id="Path_584" data-name="Path 584" d="M278.394,49.246l-2.284-4.928L272.2,49.5,274.91,60.89l1.048-1.084Z" fill="#c4cfc2"/>
        <path id="Path_585" data-name="Path 585" d="M271.664,50.206,268.289,59.6l.971,7.134,5.65-5.84L272.2,49.5Z" fill="#91968c"/>
        <path id="Path_586" data-name="Path 586" d="M272.042,32.043l-.965-7.128-1.927,4.42,2.683,5.776Z" fill="#f7f5ff"/>
        <path id="Path_587" data-name="Path 587" d="M271.833,35.112l-2.685-5.778-1.132,2.594,2.918,12.248.307-.5Z" fill="#c4cfc2"/>
        <path id="Path_588" data-name="Path 588" d="M268.017,31.929l-2.4,5.521-1.25,6.975-.384,2.126.2,1.251.963,5.892,5.786-9.518Z" fill="#91968c"/>
        <path id="Path_589" data-name="Path 589" d="M264,20.716l-.722-8.046-.013-.011-2.7,7.041,3.5,2Z" fill="#f7f5ff"/>
        <path id="Path_590" data-name="Path 590" d="M258.12,33.994l.116.494,3.079,3.193,3.463-6.207-.707-9.773-3.506-2L258.6,24.835Z" fill="#c4cfc2"/>
        <path id="Path_591" data-name="Path 591" d="M258.235,34.488l1.276,5.329.181.77.283-.505,1.339-2.4Z" fill="#61665e"/>
        <path id="Path_592" data-name="Path 592" d="M250.571,7.513l1.575.522-1.51-3.329Z" fill="#f5f5fa"/>
        <path id="Path_593" data-name="Path 593" d="M254.77,16.392l-1.553-6-1.068-2.356-1.579-.524-.146,6.4Z" fill="#f7f5ff"/>
        <path id="Path_594" data-name="Path 594" d="M250.327,17.9l.788,6.933,2.367,4.721.675.7,1.773-9.383-1.162-4.478-4.346-2.484Z" fill="#c4cfc2"/>
        <path id="Path_595" data-name="Path 595" d="M254.068,30.723l.09-.47-.677-.7Z" fill="#61665e"/>
        <path id="Path_596" data-name="Path 596" d="M241.1,0l.408,4.523,1.884.623Z" fill="#f5f5fa"/>
        <path id="Path_597" data-name="Path 597" d="M246.219,11.509l-2.832-6.364L241.5,4.523l.4,4.525Z" fill="#f7f5ff"/>
        <path id="Path_598" data-name="Path 598" d="M241.943,9.42l1.222,6,2.982,5.321.271-8.788-.2-.442-4.312-2.462Z" fill="#c4cfc2"/>
        <path id="Path_599" data-name="Path 599" d="M229.5,8.772l6.05,5.481,4.524,1.384-13.7-14.219Z" fill="#f7f5ff"/>
        <path id="Path_600" data-name="Path 600" d="M226.375,1.418l13.7,14.219,1.519.463-4.183-8.065-11.154-6.9Z" fill="#c4cfc2"/>
        <path id="Path_601" data-name="Path 601" d="M33.363,141.422,22.57,122.368,18.084,96.608,20.4,72.145l8.308-26.937,6.651-13.432,11.221-14.1,1.454-1.761.709-.789,4.243-3.283-4.877,5.8L36.749,31.638,29.963,45.007,21.4,71.862,18.84,96.3l4.237,25.8,10.6,19.158,9.709,13.08,13.87,9.777L43.2,154.409Z" fill="#91968c"/>
        <path id="Path_602" data-name="Path 602" d="M37.5,27.579,26.285,48.067,20.659,65.2l-3,19.675-.737,18.793,5.132,20.973,7.111,14.745,10.295,13.242L56.27,166.994l.007,0,14.441,6.765L78.6,177l3.569-.188-9.61-4.284-15.022-8.21-.281-.2L43.2,154.408l-9.838-12.987L22.569,122.368,18.083,96.608,20.4,72.147,28.705,45.21l6.653-13.434,11.221-14.1,1.454-1.763Z" fill="#f7f5ff"/>
        <path id="Path_603" data-name="Path 603" d="M56.441,136.054l7.01,16.472-.3,8.82-.924.933-5.867-24.393Z" fill="#61665e"/>
        <path id="Path_604" data-name="Path 604" d="M55.543,155.279l-.011-.043.825-17.351,5.867,24.393-2.31,2.346Z" fill="#c4cfc2"/>
        <path id="Path_605" data-name="Path 605" d="M58.774,165.785l-3.231-10.506,4.368,9.346Z" fill="#757a7d"/>
        <path id="Path_606" data-name="Path 606" d="M48.426,129.581l3.42,13.983-.44,2.863-4.879-10.439Z" fill="#828075"/>
        <path id="Path_607" data-name="Path 607" d="M46.443,157.625l1.2-.942-1.738-1.97Z" fill="#828075"/>
        <path id="Path_608" data-name="Path 608" d="M47.647,156.683l-1.738-1.971-1.618-8.839,2.178-9.682.058-.205,4.881,10.441-1.276,8.328Z" fill="#c4cfc2"/>
        <path id="Path_609" data-name="Path 609" d="M41.345,124.9l1.871,4.006-.131-5.933Z" fill="#828075"/>
        <path id="Path_610" data-name="Path 610" d="M35.935,147.649l.109-4.118,2.387,2.708Z" fill="#828075"/>
        <path id="Path_611" data-name="Path 611" d="M40.782,144.906,38.43,146.24l-2.387-2.708.146-5.653,3.631-11.291,1.525-1.688,1.871,4.006.15,6.683Z" fill="#c4cfc2"/>
        <path id="Path_612" data-name="Path 612" d="M38.442,113.318l.632-.852-.138,1.41-.488,4.827L36.9,115.389Z" fill="#828075"/>
        <path id="Path_613" data-name="Path 613" d="M35.446,131.027l-5.985,2.99,1.008-10.006,6.428-8.622,1.551,3.314-.382,3.766Z" fill="#c4cfc2"/>
        <path id="Path_614" data-name="Path 614" d="M29.249,108.918l-3.042,11.411-2.5,1.423-.337-.425,4.084-10.935Z" fill="#e8ebe0"/>
        <path id="Path_615" data-name="Path 615" d="M29.249,108.918l6.666-5.476-2.456,8.445-.144.494-2.7,3.643-2.322,3.124-2.086,1.181Z" fill="#91968c"/>
        <path id="Path_616" data-name="Path 616" d="M23.077,122.1l.625-.349-.335-.427Z" fill="#61665e"/>
        <path id="Path_617" data-name="Path 617" d="M32.974,94.946l-1.212,4.541-9.672,3.788,2.1-3.812Z" fill="#f7f5ff"/>
        <path id="Path_618" data-name="Path 618" d="M30.75,103.284l-6.14,4.193-4.978.263,2.458-4.465,9.67-3.788Z" fill="#91968c"/>
        <path id="Path_619" data-name="Path 619" d="M32.974,94.946l2.8-1.447-2.593,5.433-1.424.556Z" fill="#757a7d"/>
        <path id="Path_620" data-name="Path 620" d="M33.185,98.931l-1.9,3.989-.529.364,1.01-3.8Z" fill="#828075"/>
        <path id="Path_621" data-name="Path 621" d="M23.442,88.79l2.382-2.042,4.791-2.081L27.533,89.75Z" fill="#f5f5fa"/>
        <path id="Path_622" data-name="Path 622" d="M25.4,93.278l-7.653.4,5.7-4.888,4.091.959Z" fill="#91968c"/>
        <path id="Path_623" data-name="Path 623" d="M30.843,90.524l-2,2.574-3.448.181,2.135-3.529Z" fill="#828075"/>
        <path id="Path_624" data-name="Path 624" d="M30.614,84.666l5.764-2.5,1.457-.632-1.959,2.522-5.034,6.474-3.309-.774Z" fill="#c4cfc2"/>
        <path id="Path_625" data-name="Path 625" d="M41,72.37l-9.384,7.759-2.367.645,1.813-7.623Z" fill="#91968c"/>
        <path id="Path_626" data-name="Path 626" d="M29.251,80.774l-1.68.457-.412-7.772,3.9-.308Z" fill="#f7f5ff"/>
        <path id="Path_627" data-name="Path 627" d="M22.914,82.5l-3.467-3.838L26.665,73.5l.5-.041.41,7.772Z" fill="#c4cfc2"/>
        <path id="Path_628" data-name="Path 628" d="M42.423,60.278l.673,1.449L39.985,64l-.524.283-1.31-3.723Z" fill="#828075"/>
        <path id="Path_629" data-name="Path 629" d="M42.423,60.278l.673,1.451,2.249-1.645Z" fill="#61665e"/>
        <path id="Path_630" data-name="Path 630" d="M38.152,60.562l1.31,3.721-7.217,3.911,1.749-7.358Z" fill="#91968c"/>
        <path id="Path_631" data-name="Path 631" d="M33.993,60.837l-1.749,7.356-.47.256-4.937-1.117-.168-3.24,5.094-3.105Z" fill="#f7f5ff"/>
        <path id="Path_632" data-name="Path 632" d="M22.838,66.427l3.831-2.335.168,3.24Z" fill="#c4cfc2"/>
        <path id="Path_633" data-name="Path 633" d="M49.711,48.184l-7.4,5.362-3.992,1.179,6.765-7.018Z" fill="#828075"/>
        <path id="Path_634" data-name="Path 634" d="M32.107,56.566l-5.955-3.71,2.587-1.585,5.019,4.8Z" fill="#91968c"/>
        <path id="Path_635" data-name="Path 635" d="M40.9,47.272l4.185.435-6.763,7.022-1.555.459Z" fill="#91968c"/>
        <path id="Path_636" data-name="Path 636" d="M39.868,47.168l1.035.1L36.77,55.188l-3.012.888-5.019-4.8,3.553-2.182Z" fill="#f7f5ff"/>
        <path id="Path_637" data-name="Path 637" d="M50.606,37.425l-1.319,3.26-1.085.686-4.877,1.263,2.845-5.448Z" fill="#91968c"/>
        <path id="Path_638" data-name="Path 638" d="M54.145,37.619l-4.86,3.068,1.321-3.262Z" fill="#828075"/>
        <path id="Path_639" data-name="Path 639" d="M31.075,40.544l7.315-3.251,4.976-.259,2.806.151-2.847,5.45-4.4,1.138Z" fill="#f7f5ff"/>
        <path id="Path_640" data-name="Path 640" d="M48.7,32.351l2.179-4.172.838-.481,2.905-.194-1.19,2.945-1.9,1.181Z" fill="#91968c"/>
        <path id="Path_641" data-name="Path 641" d="M58.593,27.242,53.429,30.45l1.19-2.945Z" fill="#828075"/>
        <path id="Path_642" data-name="Path 642" d="M48.7,32.351l-4.744,1.2-2.032-.265,8.955-5.112Z" fill="#c4cfc2"/>
        <path id="Path_643" data-name="Path 643" d="M37.092,30.854l7.726-2.7,6.284-.418-.228.44-8.955,5.114-3.186-.418Z" fill="#f7f5ff"/>
        <path id="Path_644" data-name="Path 644" d="M51.1,27.738l-.228.44.84-.481Z" fill="#e8ebe0"/>
        <path id="Path_645" data-name="Path 645" d="M56.3,17.795l2.3-.119L57.34,20.781l-3.053.862Z" fill="#91968c"/>
        <path id="Path_646" data-name="Path 646" d="M63.067,17.442,59.752,20.1l-2.411.679L58.6,17.675Z" fill="#828075"/>
        <path id="Path_647" data-name="Path 647" d="M46.826,22.5l-1.884-1.688.249-.259,6.965-2.542L56.3,17.8l-2.011,3.848-2.857.809Z" fill="#f7f5ff"/>
        <path id="Path_648" data-name="Path 648" d="M44.81,20.69l.133.121.247-.259Z" fill="#e8ebe0"/>
        <path id="Path_649" data-name="Path 649" d="M40.051,174.8l-5.885-2.374,5.072-2.626,2.342,5.015Z" fill="#757a7d"/>
        <path id="Path_650" data-name="Path 650" d="M46.5,166.045l1.818.209,7.8,4.916-.879.8L45,166.821Z" fill="#91968c"/>
        <path id="Path_651" data-name="Path 651" d="M55.236,171.97l-3.278,2.971-10.377-.125L39.237,169.8,45,166.821Z" fill="#c4cfc2"/>
        <path id="Path_652" data-name="Path 652" d="M60.022,167.63l-3.033-.354-8.669-1.02,7.8,4.914L58.513,169v0Z" fill="#61665e"/>
        <path id="Path_653" data-name="Path 653" d="M35.64,162.107l-9.4-4.728,2.486-.742,4.217-.076.14.09Z" fill="#f7f5ff"/>
        <path id="Path_654" data-name="Path 654" d="M36.3,163.519l-5.68-.091-9.642-4.472,5.264-1.576,9.4,4.728Z" fill="#757a7d"/>
        <path id="Path_655" data-name="Path 655" d="M41.767,163.61l-3.248-.054-2.879-1.449-2.552-5.457,9.754,6.151Z" fill="#f5f5fa"/>
        <path id="Path_656" data-name="Path 656" d="M36.3,163.518l2.215.037-2.877-1.449Z" fill="#757a7d"/>
        <path id="Path_657" data-name="Path 657" d="M33.047,156.559l6.806-.119,7.637,2.852-4.647,3.51-9.754-6.151-.14-.09Z" fill="#91968c"/>
        <path id="Path_658" data-name="Path 658" d="M23.5,152.128l-11.494-6.863,2.438-.377,11.509,7.263Z" fill="#cfc9c7"/>
        <path id="Path_659" data-name="Path 659" d="M25.721,143.209l1.362.589,3.927,8.4-5.055-.05-11.509-7.263,3.276-.5Z" fill="#c4cfc2"/>
        <path id="Path_660" data-name="Path 660" d="M37.125,148.352l-4.4,3.864L31.01,152.2l-3.927-8.4,8.853,3.85Z" fill="#91968c"/>
        <path id="Path_661" data-name="Path 661" d="M7,130.147l1.9-1.669-3.54-.088Z" fill="#f7f5ff"/>
        <path id="Path_662" data-name="Path 662" d="M20.656,130.049l3.854,8.244-2.082.686-10.761-3.84-4.662-4.993,1.9-1.671,6.263.164Z" fill="#c4cfc2"/>
        <path id="Path_663" data-name="Path 663" d="M21.975,130.388l4.976,3.378,1.7,3.165-4.142,1.362-3.854-8.244Z" fill="#61665e"/>
        <path id="Path_664" data-name="Path 664" d="M2.234,111.051l2.376-.931L.674,108.537Z" fill="#cfc9c7"/>
        <path id="Path_665" data-name="Path 665" d="M12.047,113.109l.92.686-3.6,5.935-4.088-3.779-3.049-4.9,2.374-.929Z" fill="#f7f5ff"/>
        <path id="Path_666" data-name="Path 666" d="M19.036,118.294l2.771,5.217-9.461-1.039L12,122.159l5.76-4.806Z" fill="#61665e"/>
        <path id="Path_667" data-name="Path 667" d="M17.764,117.353,12,122.159l-2.632-2.43,3.6-5.933Z" fill="#91968c"/>
        <path id="Path_668" data-name="Path 668" d="M.759,93.862l2.735,6.3,5.167,7,2.1.548,1.437-.56L1.4,93.462Z" fill="#e8ebe0"/>
        <path id="Path_669" data-name="Path 669" d="M1.4,93.461l10.794,13.692,4.466-1.751-1.356-3.37L9.623,96.2l-7.5-3.189Z" fill="#c4cfc2"/>
        <path id="Path_670" data-name="Path 670" d="M12.193,107.153l4.466-1.751.556,1.382-1.371,2.264-2.715-.712Z" fill="#828075"/>
        <path id="Path_671" data-name="Path 671" d="M.759,93.862l.64-.4.72-.446L.511,92.333,0,92.113Z" fill="#f5f5fa"/>
        <path id="Path_672" data-name="Path 672" d="M18.392,109.716l-2.548-.668,1.369-2.264Z" fill="#61665e"/>
        <path id="Path_673" data-name="Path 673" d="M10.757,107.712l2.37.623-.934-1.182Z" fill="#f5f5fa"/>
        <path id="Path_674" data-name="Path 674" d="M4.508,75.614l2.584,2.059L4.9,78.212Z" fill="#f7f5ff"/>
        <path id="Path_675" data-name="Path 675" d="M6.233,84.765,5.685,83.4,4.9,78.211l2.189-.539,4.63,3.691,2.569,4.088-1.4.871Z" fill="#c4cfc2"/>
        <path id="Path_676" data-name="Path 676" d="M17.7,96.551,9.22,92.211,8.06,89.322l4.827-3,2.286.537.737,1.171Z" fill="#91968c"/>
        <path id="Path_677" data-name="Path 677" d="M12.886,86.322l-4.827,3L6.234,84.765Z" fill="#f5f5fa"/>
        <path id="Path_678" data-name="Path 678" d="M12.887,86.322l2.286.537-.883-1.408Z" fill="#61665e"/>
        <path id="Path_679" data-name="Path 679" d="M7.306,60.644l-.1-1.917h0l.526-1.13-.614-.554-.741-.664Z" fill="#f7f5ff"/>
        <path id="Path_680" data-name="Path 680" d="M7.729,57.6l6.7,6.019,0,.009L11.875,74.407,9.918,72.652,7.3,60.645l-.1-1.919Z" fill="#c4cfc2"/>
        <path id="Path_681" data-name="Path 681" d="M17.707,71.1l.874,9.331-6.707-6.022,2.565-10.782Z" fill="#91968c"/>
        <path id="Path_682" data-name="Path 682" d="M11.556,49.028l.384-7.291,1.953,2.583-2.286,4.926Z" fill="#f7f5ff"/>
        <path id="Path_683" data-name="Path 683" d="M11.607,49.246l2.286-4.928L17.8,49.5,15.09,60.89l-1.048-1.084Z" fill="#c4cfc2"/>
        <path id="Path_684" data-name="Path 684" d="M18.335,50.2,21.708,59.6l-.967,7.13-5.65-5.838L17.8,49.5Z" fill="#91968c"/>
        <path id="Path_685" data-name="Path 685" d="M17.959,32.043l.967-7.128,1.925,4.42L18.17,35.111Z" fill="#f7f5ff"/>
        <path id="Path_686" data-name="Path 686" d="M18.17,35.111l2.681-5.776,1.132,2.594L19.066,44.177l-.3-.5Z" fill="#c4cfc2"/>
        <path id="Path_687" data-name="Path 687" d="M21.982,31.929l2.4,5.521,1.248,6.975.38,2.126-.2,1.251-.958,5.892-5.788-9.518Z" fill="#91968c"/>
        <path id="Path_688" data-name="Path 688" d="M26,20.716l.726-8.046.007-.011,2.7,7.041-3.5,2Z" fill="#f7f5ff"/>
        <path id="Path_689" data-name="Path 689" d="M31.88,33.994l-.116.494-3.076,3.193-3.467-6.207.707-9.773,3.5-2L31.4,24.835Z" fill="#c4cfc2"/>
        <path id="Path_690" data-name="Path 690" d="M28.688,37.68l1.338,2.4.284.505.183-.768,1.27-5.33Z" fill="#61665e"/>
        <path id="Path_691" data-name="Path 691" d="M37.855,8.035l1.575-.522-.067-2.807Z" fill="#f5f5fa"/>
        <path id="Path_692" data-name="Path 692" d="M35.23,16.392l1.555-6,1.07-2.356,1.575-.524.15,6.4Z" fill="#f7f5ff"/>
        <path id="Path_693" data-name="Path 693" d="M39.673,17.9l-.786,6.933-2.37,4.721-.672.7L34.07,20.87l1.16-4.478,4.35-2.484Z" fill="#c4cfc2"/>
        <path id="Path_694" data-name="Path 694" d="M35.843,30.253l.09.47.584-1.173Z" fill="#61665e"/>
        <path id="Path_695" data-name="Path 695" d="M48.907,0,46.615,5.146,48.5,4.523Z" fill="#f5f5fa"/>
        <path id="Path_696" data-name="Path 696" d="M43.781,11.509l2.834-6.364L48.5,4.523l-.41,4.525Z" fill="#f7f5ff"/>
        <path id="Path_697" data-name="Path 697" d="M48.058,9.42l-1.222,6-2.982,5.321-.269-8.788.2-.442L48.09,9.047Z" fill="#c4cfc2"/>
        <path id="Path_698" data-name="Path 698" d="M49.925,15.638l4.529-1.384L60.5,8.772l3.124-7.354Z" fill="#c4cfc2"/>
        <path id="Path_699" data-name="Path 699" d="M52.592,8.035,48.409,16.1l1.515-.464,13.7-14.219.12-.278Z" fill="#f7f5ff"/>
      </g>
      <path id="Color_Overlay" data-name="Color Overlay" d="M496.717,970.763l-11.511-5.393-.694.629v0l-2.395,2.167-6.357-4.007,6.356,4.008-.879.8-5.134-2.583,5.133,2.583-3.278,2.971-10.377-.125-1.47-3.144,1.468,3.145-1.528-.014-5.885-2.374,5.072-2.626L471,963.821h0l1.5-.775,1.818.208,0,0,8.508,1-.552-.257-.007,0-8.9-7.609-4.524,3.417h0l-1.076.809-3.247-.054-.021-.011.019.01-2.215-.037-.661-1.411h0l.662,1.412-5.68-.093-9.642-4.471,5.264-1.576,2.487-.742,4.216-.076h0l.1,0,6.806-.12,7.223,2.7-7.614-6.506-2.925-3.763-3.816,3.349-1.712-.015h0l-5.055-.05-2.452-.023-11.494-6.863,2.437-.377h0l3.276-.5,8-1.181,1.363.589h0l8.329,3.622-6.246-8.033-1.093-2.267-3.564,1.171-3.854-8.244,1.318.34,4.24,2.877-4.159-8.622-.278-1.137-9.432-1.035-.343-.313h0l-2.632-2.429h0l-4.088-3.778-3.048-4.9h0l-1.561-2.514,3.936,1.583-.9.352.9-.351,7.438,2.987.921.687-1.8,2.967,1.8-2.966,4.8,3.557,1.272.941,2.721,5.122-4.831-19.745.289-7.37-7.995-4.091-1.159-2.889,4.827-3,1.4-.871.883,1.409.737,1.171,1.372,6.527.38-9.68.707-4.64-6.494-5.832h0l-1.957-1.754L433.3,857.645v-.007l-.931-4.26.741.664.614.554-.526,1.13h0l.526-1.13,6.7,6.017,0,.011-1.035,4.355,1.036-4.355,3.268,7.474.783,8.354,1.981-13.005-5.379-5.557L442.3,852.8l-1.211,5.091-1.048-1.084-2.436-10.56-.05-.219.383-7.291,1.953,2.583h0L443.8,846.5l.534.708,3.373,9.392-.557,4.108,3.433-10.456-5.518-9.073-.3-.5-.591-8.564h0l-.211-3.068.967-7.129,1.925,4.421,1.131,2.593h0l2.4,5.52,1.248,6.976.38,2.126-.2,1.252-.549,3.38,1.022-3.116,9.608-17.557-.049-.257,0,0-1.776-9.38,1.16-4.478h0l1.553-6,1.07-2.355.986-.328-.985.327,1.508-3.329.068,2.806.149,6.4.094,3.989-.786,6.933-1.367,2.723,6.329-7.006-.265-8.595.2-.442,2.462-1.408-2.462,1.408,2.834-6.364h0L474.907,797l-.408,4.523-.41,4.524h0l-.032.373-1.221,6-2.687,4.8,3.873-4.288.009-.011.709-.788.292-.226,3.56-6.865,11.154-6.895-.12.278h0l-3.125,7.353-6.046,5.481-4.529,1.384,6.85-7.11-6.851,7.11-.174.053-1.645,1.957-2.123,2.615,6.173-2.254,4.14-.214h0l2.3-.12h0l4.471-.233-3.315,2.66-2.411.679.249-.617-.25.617-3.053.861,1.484-2.842-1.486,2.843-2.857.81-4.6.046-1.539-1.379-7.786,9.59,7.317-2.555,6.284-.418-.229.441-7.034,4.016,7.034-4.015.228-.441.611-.04,2.905-.194-1.19,2.945-1.9,1.181-2.834.722-4.745,1.2-2.03-.265h0l-3.186-.417-1.494-1.84-.49.6-4.184,8.244,5.825-2.588,4.976-.26,2.806.151-2.848,5.45-4.4,1.138-6.893-2.836-2.065,4.07-2.187,6.854.962-.59h0l3.551-2.181,7.576-1.922,1.035.1,4.185.435-2.268,2.354,2.269-2.353,4.623.477-7.4,5.362-3.987,1.177,0,0-1.554.458v0l-3.011.887h0l-1.651.491-4.865-3.03-4.043,12.67,3.47-2.114,5.094-3.1,2.23-.149h0l4.159-.274.655,1.86-.655-1.861,4.271-.284.673,1.449L465.985,861l-.524.284h0l-7.217,3.911,1.467-6.172-1.468,6.171-.469.256-4.937-1.117-3.728-.843-1.715,5.374-.61,5.843,5.88-4.2.495-.041,3.9-.308-1.811,7.623,1.813-7.622L467,869.37l-9.384,7.759-2.366.645-1.679.457L453.3,873.1l.27,5.135-4.656,1.268-2.358-2.611-1.307,12.5,4.193-3.6,1.044.244-1.045-.245,2.381-2.042,4.792-2.082-3.081,5.084,3.081-5.083,5.764-2.5,1.457-.633-1.958,2.522-5.034,6.472h0l-2,2.574-3.448.181.646-1.068-.646,1.067-6.276.329-.282,2.694,1.629,9.92,1.622-2.945h0l2.1-3.812,8.783-4.517-1.211,4.54,1.211-4.54,2.8-1.447-2.593,5.432-1.9,3.989-.53.364-6.14,4.193-3.9.205,2.368,14.422,6.417,11.593.977-9.686,6.428-8.622.922,1.97-.922-1.971,1.544-2.07.632-.852-.138,1.41-.489,4.825v0l-.382,3.766-2.621,8.559-5.82,2.907,4.055,7.327,2.34,3.151.022-.881.146-5.653,3.632-11.29,1.525-1.688,1.74-1.927.131,5.933-1.871-4.006,1.87,4.007.15,6.683-2.584,9.318-2.352,1.334h0l-.742.419,5.7,7.683,2.815,1.984-.3-1.612,1.738,1.969-.443.346,9.951,7.015.106.074.281.2.939.513-2.938-9.552-.011-.042.824-17.348v0l.086-1.831,7.009,16.472-.3,8.82-.923.931h0l-2.31,2.346-4.37-9.346,4.369,9.346-.631.643,13.284,7.26,9.61,4.284L504.6,974Zm-48.148-51.394,10.793,19.054.736.972-.735-.971L448.57,919.369l-2.551-14.649h0Zm-4.486-25.76,1.845,10.594h0l-1.845-10.593.281-2.962h0Zm12.667,6.676,1.011-3.8h0ZM444.415,890.1h0l.773-8.173Zm10.291-47.893-1.881,6.1,1.882-6.1Zm179.124,131.6,9.607-4.284,13.283-7.26-.633-.643,4.373-9.346-4.374,9.346-2.309-2.346h0l-.924-.931-.305-8.82,7.012-16.472.086,1.831v0l.823,17.348-.009.042-2.938,9.55.936-.511.284-.2.106-.074,9.95-7.015-.445-.346h0l-2.483-1.929-1.277-8.328,0-.006-.441-2.858,3.425-13.982,1.894,6.405.061.205,2.178,9.681-1.618,8.839-.294,1.612,2.811-1.982,5.7-7.683-.744-.419,1.334-1.515-1.336,1.516-2.352-1.334-2.583-9.318.148-6.683L674,923.291l-1.223,2.615.133-5.935,1.742,1.927h0l1.527,1.688,3.627,11.29.146,5.653.024.886,2.343-3.155,4.056-7.328-5.825-2.906-2.623-8.559-.379-3.766v0l-.486-4.825-.142-1.41.633.852,1.545,2.07-.494,1.057.494-1.056,6.424,8.622.985,9.682,6.414-11.589v0l-.631-.35-2.5-1.423-1.116-4.184,1.115,4.183-2.09-1.181-2.316-3.124-2.7-3.642-.148-.494-2.453-8.446,6.667,5.476v0l1.8,1.472,4.081,10.933.3.776,2.366-14.418-3.9-.206-6.138-4.193-.337-1.266.337,1.266-.531-.364-1.9-3.989-2.591-5.432,2.8,1.447,8.781,4.517,2.1,3.811h0l1.623,2.949,1.629-9.924-.282-2.694-6.279-.329h0l-3.448-.181-2-2.574h0l-5.028-6.472-1.959-2.522,1.455.633,5.768,2.5,3.077,5.084-3.077-5.085,4.789,2.082,2.381,2.042-1.456.342,1.457-.341,4.191,3.595-1.308-12.494-2.358,2.607-4.655-1.268.41-7.771-.411,7.771-1.679-.453h0l-2.375-.648L675,869.37l9.935.782.35,1.468-.35-1.469,3.908.308.495.041,5.878,4.2-.611-5.839-1.714-5.374-3.73.843-4.933,1.117-.472-.256-1.75-7.356,2.229.149,5.094,3.1-.168,3.24.17-3.24,3.47,2.114-4.041-12.672-4.866,3.032-1.652-.491,2.4-2.3-2.4,2.3-3.01-.887v0l-1.553-.458,0,0-3.99-1.178-7.4-5.362,4.619-.477,3.515,3.645-3.515-3.646,4.19-.435,1.976,3.785-1.975-3.784,1.036-.1,7.572,1.922,3.552,2.182h0l.966.591-2.187-6.856-2.065-4.071-6.894,2.837-4.4-1.138-4.875-1.264-1.084-.686h0l-4.865-3.068,3.543-.193h0l4.434-.238,2.846,5.448-2.847-5.45,2.8-.151,4.98.26,5.827,2.59-4.185-8.246-.491-.606-1.5,1.842-3.182.417h0l-2.031.265-4.744-1.2-2.832-.722-1.9-1.181h0l-5.163-3.208,3.971.262h0l2.91.194,0,0,.6.039.229.44-.228-.441,6.284.418,7.322,2.556-7.789-9.594-1.537,1.381-4.61-.046-2.852-.81-1.66-3.179,1.657,3.178-3.051-.861-.374-.926.374.925-2.414-.679-3.315-2.66,4.475.233h0l2.3.12h0l4.139.214,6.176,2.255-2.125-2.616-1.644-1.957-.18-.054h0l-4.523-1.383-6.051-5.481-3.123-7.353h0l-.12-.278,11.154,6.9,3.56,6.862.294.229.7.788.01.011,3.875,4.289-2.687-4.8-1.222-6-.035-.373h0l-.4-4.524h0L667.1,797l2.291,5.146h0l2.831,6.363h0l.2.442-.265,8.595,6.324,7-1.362-2.716-.788-6.933.1-3.989,3.163,1.807-3.161-1.807.146-6.4h0l.066-2.806,1.51,3.329-1.05-.348,1.052.35,1.068,2.355,1.553,6h0l1.162,4.478-1.773,9.381v0l-.049.256,9.6,17.56,1.026,3.126-.555-3.391-.2-1.252.383-2.126,1.25-6.976,2.4-5.521,1.132-2.594,1.991,4.283-1.989-4.282,1.927-4.421.965,7.129-.21,3.067v0l-.591,8.563-.307.5-5.519,9.077,3.434,10.463-.562-4.121,3.375-9.391.536-.71h0l3.909-5.177h0l1.948-2.583.383,7.291-.049.219-2.435,10.56-1.048,1.084-1.807-7.6,1.807,7.6-5.382,5.562,1.983,13,.781-8.354,3.271-7.473h0l.005-.011,6.7-6.017.263.565-.262-.566.614-.552.739-.664-.924,4.261v.005l-2.614,12.008-1.955,1.754-.883-3.708.882,3.707-6.5,5.833.707,4.64.382,9.681,1.373-6.529.734-1.171.886-1.409,1.4.871,1.823,1.133-1.824-1.134-1.4-.87,2.569-4.09,4.622-3.69h0l2.586-2.057-.391,2.6h0l-.788,5.189-.546,1.365-6.654,1.557,6.655-1.557-1.831,4.556h0l-1.158,2.889-7.993,4.091.29,7.369-4.835,19.75,2.721-5.122,1.27-.946,4.8-3.556h0l.924-.687,7.431-2.987,3.938-1.585-1.559,2.514-3.05,4.9-4.1,3.778L704,919.159l-.344.313-9.432,1.035-.279,1.138-4.157,8.621,4.241-2.878,1.317-.339h0l5.493-1.409,6.261-.165h0l3.541-.087L709,927.146l-.633-.556.633.557-4.658,4.993-10.762,3.84-2.084-.687v0l-3.565-1.171-1.094,2.268-6.245,8.034,8.331-3.622v0l1.358-.589,8,1.181,3.274.5,2.443.377-11.5,6.863-2.449.023-5.054.05.7-1.491-.7,1.492-1.715.015-3.813-3.348-2.924,3.762-7.61,6.5,7.218-2.695,6.806.12.1,0h0l4.222.076,2.479.742-9.391,4.727,9.391-4.727,5.267,1.576-9.643,4.471-5.675.093.658-1.412h0l-.657,1.41-2.218.037h0l-3.245.054-1.076-.809h0l-4.524-3.415-8.9,7.609,0,0-.55.257,8.5-1-4.916,3.1,4.917-3.1,1.817-.208,1.5.775,5.76,2.982,5.072,2.626-5.886,2.374-1.53.014,1.172-2.507-1.172,2.506-10.376.129-3.279-2.974,4.1-2.065-4.107,2.065-.877-.8h0L657.491,966l-.7-.633-11.512,5.391L637.392,974Zm49.084-20.161L681.4,956.9l1.519-3.245.089-.059Zm15-60.043-1.236,7.088,1.237-7.089-.281-2.961Zm-.332-3.507h0l-.464-4.891Zm-7.829-1.217-1.291-2.134h0Zm-20.335-74.208,11.219,14.1-11.218-14.1-.215-.261Zm-4.3,10.5,2.852,1.626-2.852-1.627-.278-.16ZM471.909,951.712l-1.618-8.839,2.177-9.681.059-.205.533,1.138-.532-1.137,1.9-6.407,3.419,13.982-.439,2.862v0l-1.276,8.328-2.484,1.929ZM437.667,932.14l-4.662-4.993.591-.521-.593.521-1.641-1.757,3.536.087,0,0,6.264.165,5.49,1.409,3.854,8.245-2.082.687Zm11.7-13.813h0l4.084-10.935,1.8-1.474-3.042,11.411-2.5,1.423-.168-.212.167.213-.625.349Zm5.882-12.409,6.666-5.476-2.457,8.446-.144.494-2.7,3.642-2.322,3.124-2.086,1.181Zm243.536-2.133.519.854-.519-.855.558-1.382,4.468,1.751-4.468-1.753,1.353-3.368,5.683-5.825,7.5-3.19.716.444-.717-.446,1.613-.681.508-.22-.756,1.75-.647-.4.645.4-2.733,6.3-5.172,7-2.092.548-1.435-.559,1.434.559-2.374.623.087-.11-.088.111-2.71.711h0l-2.55.668Zm-256.942,2.263.983-1.624-.984,1.624-2.714-.712-.467-.591.466.591-2.369-.624h0l-2.1-.549-5.167-7-2.735-6.3-.76-1.75.51.22,1.609.682,7.5,3.19,5.68,5.827,1.356,3.37-4.466,1.751-.4.157.4-.157h0l4.466-1.751.555,1.382h0l1.178,2.931Zm-9.61-24.283-.548-1.365-.784-5.189h0l-.392-2.6,2.582,2.057,4.63,3.69,2.569,4.09-1.4.87-4.827,3Zm244.308-20.481h0l-.526-.284-3.109-2.273h0l-2.254-1.643,2.928.192-.448.967.448-.966,4.271.284-.27.769.27-.768,4.154.274,1.751,7.358Zm-208.119-4.006,2.922-.193-2.248,1.644Zm3.749-23.09,4.434.238,3.54.193-4.856,3.065v0l-1.085.686-4.877,1.264Zm213.34,2.629-1.276-5.328,3.079,3.192-1.339,2.4-.283.506Zm-229.487.265-1.337-2.4h0l-3.467-6.2.707-9.773,3.5-2-3.5,2,.071-.985.726-8.046.007-.011,2.7,7.041,1.967,5.135.481,9.159-.116.494h0l-1.27,5.329-.184.769Zm228.211-5.593-.116-.494.481-9.159,1.965-5.135,3.505,2,.707,9.773-3.463,6.206Zm-203.617-6.983,3.974-.263-5.163,3.208Zm205.947-7.8,2.7-7.041.013.011.722,8.046.071.985Z" fill="#bdcfe8"/>
    </g>
  </g>
</svg>
