<svg id="sante" xmlns="http://www.w3.org/2000/svg" xmlns:xlink="http://www.w3.org/1999/xlink" width="83" height="53" viewBox="0 0 83 53">
  <defs>
    <clipPath id="clip-path">
      <rect id="Rectangle_1" data-name="Rectangle 1" width="83" height="53" fill="none"/>
    </clipPath>
  </defs>
  <g id="Group_2" data-name="Group 2">
    <g id="Group_1" data-name="Group 1" clip-path="url(#clip-path)">
      <path id="Path_1" data-name="Path 1" d="M56.18,27.244a14.982,14.982,0,0,0,.635-3.789c.026-.16,0-.327.011-.49.12-1.524.123-1.564,1.615-1.516.775.025,1.114-.12,1.176-1.018.159-2.305.459-4.6.7-6.9.066-.614.152-1.227.2-1.842.03-.394.245-.479.581-.477,1.264.009,2.528.025,3.792,0,.577-.012.73.244.674.772-.169,1.618-.318,3.239-.482,4.858-.138,1.36-.285,2.72-.431,4.079-.066.616.4.478.716.5,1.747.111,1.807.208,1.516,1.984a17.567,17.567,0,0,0-.319,4.016c.77-1.215,1.41-2.3,2.12-3.328a10.528,10.528,0,0,1,3.7-3.4,5.931,5.931,0,0,1,7.79,1.992,16.637,16.637,0,0,1,2.69,8.039,31.608,31.608,0,0,1-.175,7.225c-.11.9-.336,1.383-1.452,1.354-3.66-.1-7.324-.006-10.986-.063-.964-.015-1.146.3-1.037,1.19a8.271,8.271,0,0,0,.752,2.9,2.9,2.9,0,0,0,4.953.734,1.569,1.569,0,0,0,.379-.441c.558-1.441,1.709-1.518,3-1.418.9.07,1.814.015,2.722.017.319,0,.618.024.436.484-1.5,3.791-3.191,7.461-6.96,9.548a5.422,5.422,0,0,1-6.857-1.259,13.916,13.916,0,0,1-3.207-7.2,27.014,27.014,0,0,1,1.542-14.551c.238-.634.114-.834-.535-.781-.354.029-.713.011-1.069.016a.491.491,0,0,0-.554.521q-.37,3.89-.772,7.777c-.3,2.885-.6,5.769-.9,8.653-.209,2.01-.433,4.019-.609,6.031-.047.534-.224.72-.757.706-1.133-.029-2.271-.05-3.4.025-.813.054-1.02-.27-.934-1.01q.36-3.1.68-6.206c.3-2.915.582-5.832.882-8.748q.336-3.258.7-6.512c.139-1.218.132-1.248-1.017-1.253-1.57-.006-1.55-.005-1.634,1.6-.189,3.582-.719,7.129-1.1,10.692q-.427,3.978-.854,7.956c-.046.419-.149.833-.188,1.253-.189,2.007-.184,2.008-2.22,2-.972,0-1.945-.028-2.916,0-.58.015-.677-.178-.608-.759.453-3.843.852-7.694,1.275-11.541q.33-3.006.679-6.009a9.067,9.067,0,0,0-.072-2.829c-.194-.981-.56-1.844-1.621-2.1a2.662,2.662,0,0,0-2.736.832,6.134,6.134,0,0,0-1.47,3.352c-.473,3.479-.819,6.976-1.221,10.465-.3,2.617-.629,5.232-.91,7.851-.061.563-.229.78-.828.761-1.424-.046-2.851-.028-4.277,0-.5.009-.618-.2-.563-.647.383-3.095.776-6.189,1.131-9.287s.669-6.21,1-9.315q.588-5.483,1.178-10.967c.055-.515.229-.806.847-.783,1.294.048,2.592.016,3.888-.007.512-.009.679.113.558.684-.1.47-.353,1.225.129,1.413.438.171.618-.622.915-.982A5.093,5.093,0,0,1,50.7,19.927a5.59,5.59,0,0,1,4.736,3.96,16.969,16.969,0,0,1,.747,3.356M73.928,33v.015c.679,0,1.359-.006,2.038,0,2.108.021,2.108.023,1.66-2.055-.577-2.678-2.61-3.909-4.716-2.762-1.678.914-2.348,2.6-2.875,4.337-.139.457.19.463.5.463h3.4" fill="#fff"/>
      <path id="Path_2" data-name="Path 2" d="M3.345,38.271c.745,0,1.493.04,2.234-.012.664-.046.907.135.853.857a7.875,7.875,0,0,0,.236,3.1,1.971,1.971,0,0,0,1.456,1.547,1.866,1.866,0,0,0,1.948-1.019c1.264-1.981,1.89-5.093-.844-7.137a24.674,24.674,0,0,1-4.318-3.62,10.988,10.988,0,0,1-2.565-6.893A16.76,16.76,0,0,1,5.37,14.23c1.706-2.345,3.867-4.034,6.947-4.011a5.943,5.943,0,0,1,5.4,3.529,14.549,14.549,0,0,1,1.265,8.463c-.059.6-.313.737-.87.721-1.489-.043-2.981-.056-4.47-.015-.586.016-.818-.123-.809-.745a8.712,8.712,0,0,0-.179-1.747,1.618,1.618,0,0,0-2.831-.97,4.528,4.528,0,0,0-.571,5.539,21.947,21.947,0,0,0,3.584,3.278,11.265,11.265,0,0,1,4.387,7.119,19.693,19.693,0,0,1-.275,6.692,17.249,17.249,0,0,1-2.936,7.134c-2.61,3.453-7.211,4.437-10.5,2.217A8.03,8.03,0,0,1,.434,46.3a21.936,21.936,0,0,1-.207-7.58c.046-.424.279-.45.591-.449.842,0,1.685,0,2.527,0" fill="#fff"/>
      <path id="Path_3" data-name="Path 3" d="M30.488,49.005a7.98,7.98,0,0,1-1.012,1.712,5.3,5.3,0,0,1-8.711,0,13.05,13.05,0,0,1-2.433-6.281,32.441,32.441,0,0,1,1.783-16.292,15.411,15.411,0,0,1,4.25-6.451A5.883,5.883,0,0,1,29.4,20a4.7,4.7,0,0,1,3.455,3.109c.1.227.08.517.414.7a18.113,18.113,0,0,0,.2-1.931c0-.661.2-.942.9-.917,1.23.044,2.464.046,3.692-.01.6-.027.721.2.665.727-.217,2.04-.412,4.082-.623,6.123q-.361,3.5-.736,7-.564,5.291-1.132,10.582c-.209,1.971-.429,3.94-.6,5.915-.042.49-.157.7-.671.691-1.3-.027-2.592-.035-3.888-.008-.587.012-.739-.239-.657-.77.107-.7.193-1.4.287-2.106l-.217-.1M23.335,37.784a13.024,13.024,0,0,0,.238,2.82,6.532,6.532,0,0,0,.3,1.022c.453,1.372,1.193,2.528,2.733,2.7a3.35,3.35,0,0,0,3.241-1.793A13.367,13.367,0,0,0,31.469,31.14,3.189,3.189,0,0,0,28.9,28.632,3.409,3.409,0,0,0,25.474,30.4a13.19,13.19,0,0,0-2.139,7.38" fill="#fff"/>
      <path id="Path_4" data-name="Path 4" d="M47.73,8.2A11.99,11.99,0,0,1,43.982,16.5c-3.211,2.947-7.225,2.02-8.837-2.006C33.464,10.3,35.079,4.167,38.6,1.372S46.417.23,47.46,4.8A12.464,12.464,0,0,1,47.73,8.2m-9.97,1.852a5.837,5.837,0,0,0,.006.881c.21,1.358.561,2.674,2.02,3.188,1.218.429,2.545-.215,3.477-1.716a7.35,7.35,0,0,0,.964-6.331c-.736-2.326-2.877-2.844-4.577-1.1a7.161,7.161,0,0,0-1.889,5.074" fill="#fff"/>
      <path id="Path_5" data-name="Path 5" d="M48.825,17.735c-1.436.021-1.5.013-1.325-1.429.383-3.192.832-6.376,1.261-9.562.277-2.059.571-4.115.841-6.174.042-.323.071-.555.484-.549,1.684.024,3.373-.05,5.052.057a3.216,3.216,0,0,1,3.057,2.768,8.872,8.872,0,0,1-1.437,7.408,4.416,4.416,0,0,1-4.418,1.9c-1.037-.131-1.273.392-1.36,1.24-.092.9-.226,1.8-.362,2.7-.245,1.619-.251,1.618-1.793,1.64m6.44-11.995A1.973,1.973,0,0,0,52.526,4a.515.515,0,0,0-.357.42c-.135,1.063-.277,2.125-.4,3.19-.036.3-.037.605.394.63,1.564.088,3.116-.277,3.106-2.5" fill="#fff"/>
      <path id="Path_6" data-name="Path 6" d="M32.222.024c1.134,0,2.268.016,3.4-.008.478-.01.626.143.542.629a23.1,23.1,0,0,0-.352,2.609c-.036.623-.275.8-.844.711-.221-.036-.456.016-.679-.015-.782-.108-1.1.278-1.189,1.019-.453,3.8-.929,7.606-1.385,11.41-.162,1.351-.147,1.353-1.49,1.355-.162,0-.324,0-.486,0-1.564,0-1.528.006-1.308-1.515.41-2.83.773-5.666,1.156-8.5.118-.87.213-1.744.366-2.608.137-.771-.052-1.209-.915-1.144-.29.022-.584-.008-.874.016-.458.038-.561-.209-.509-.6.129-.965.283-1.927.382-2.9.05-.485.349-.469.683-.469q1.75,0,3.5,0Z" fill="#fff"/>
      <path id="Path_7" data-name="Path 7" d="M70.958,18.93c-.2.086-.285-.047-.353-.2-.3-.685-.6-1.368-.892-2.055-.158-.373.127-.44.377-.524,2.475-.826,4.956-1.635,7.42-2.494.512-.178.748-.026.862.418.215.838,1.192,1.644.822,2.359-.328.634-1.5.553-2.3.8-1.782.554-3.585,1.042-5.38,1.555-.185.053-.372.1-.559.144" fill="#fff"/>
    </g>
  </g>
</svg>
