<svg xmlns="http://www.w3.org/2000/svg" xmlns:xlink="http://www.w3.org/1999/xlink" width="26.001" height="23" viewBox="0 0 26.001 23">
  <defs>
    <clipPath id="clip-path">
      <rect id="Rectangle_353" data-name="Rectangle 353" width="26.001" height="23" transform="translate(0 0)" fill="none"/>
    </clipPath>
  </defs>
  <g id="twitter" transform="translate(-1001 -4314)">
    <g id="Objet_dynamique_vectoriel" data-name="Objet dynamique vectoriel" transform="translate(1001 4314)">
      <g id="Group_1030" data-name="Group 1030">
        <g id="Group_1029" data-name="Group 1029" clip-path="url(#clip-path)">
          <path id="Path_329" data-name="Path 329" d="M7.884,18a5.459,5.459,0,0,1-4.971-4.03A4.894,4.894,0,0,0,5.2,13.893a.4.4,0,0,0,.076-.037A5.371,5.371,0,0,1,1.811,11.19,6,6,0,0,1,1.028,8.1a4.96,4.96,0,0,0,2.377.7,5.881,5.881,0,0,1-2.2-3.524A6.191,6.191,0,0,1,1.78,1.077,14.907,14.907,0,0,0,12.8,7.147c-.031-.23-.065-.432-.086-.637a6.027,6.027,0,0,1,.781-3.8A5.138,5.138,0,0,1,17.116.088a4.951,4.951,0,0,1,4.677,1.619.259.259,0,0,0,.285.092A10.214,10.214,0,0,0,25.184.5a.713.713,0,0,1,.072-.039c0-.005.013,0,.036,0A5.885,5.885,0,0,1,23,3.618a9.6,9.6,0,0,0,2.975-.869L26,2.774c-.2.292-.4.589-.613.87a10.928,10.928,0,0,1-1.941,2.008.2.2,0,0,0-.089.182,17.5,17.5,0,0,1-.1,2.579,18.213,18.213,0,0,1-1.377,5.171,16.877,16.877,0,0,1-2.887,4.578,14.028,14.028,0,0,1-7.342,4.445,14.693,14.693,0,0,1-2.976.386A14.169,14.169,0,0,1,.125,20.5C.093,20.477.059,20.451,0,20.41a10.026,10.026,0,0,0,5.344-.8A10.418,10.418,0,0,0,7.884,18" fill="#fff" fill-rule="evenodd"/>
        </g>
      </g>
    </g>
    <path id="Color_Overlay" data-name="Color Overlay" d="M1009.043,4337a14.172,14.172,0,0,1-7.918-2.5c-.032-.021-.066-.048-.124-.088a10.023,10.023,0,0,0,5.343-.8,10.377,10.377,0,0,0,2.54-1.61,5.462,5.462,0,0,1-4.972-4.029,4.9,4.9,0,0,0,2.291-.076.5.5,0,0,0,.077-.037,5.375,5.375,0,0,1-3.47-2.666,6,6,0,0,1-.782-3.088,4.928,4.928,0,0,0,2.376.7,5.877,5.877,0,0,1-2.2-3.523,6.185,6.185,0,0,1,.574-4.207,14.91,14.91,0,0,0,11.018,6.07c-.032-.231-.065-.432-.086-.638a6.03,6.03,0,0,1,.781-3.8,5.133,5.133,0,0,1,3.621-2.624,4.951,4.951,0,0,1,4.677,1.619.262.262,0,0,0,.285.092,10.224,10.224,0,0,0,3.106-1.3c.024-.013.047-.027.072-.038,0-.005.013,0,.035,0a5.88,5.88,0,0,1-2.288,3.16,9.6,9.6,0,0,0,2.975-.869l.022.025c-.2.292-.4.589-.614.87a10.916,10.916,0,0,1-1.941,2.008.2.2,0,0,0-.089.182,17.6,17.6,0,0,1-.1,2.58,18.2,18.2,0,0,1-1.376,5.17,16.88,16.88,0,0,1-2.888,4.579,14.022,14.022,0,0,1-7.342,4.444,14.577,14.577,0,0,1-2.977.386c-.116,0-.233.007-.348.008Z" fill="#262a2d"/>
  </g>
</svg>
