<svg xmlns="http://www.w3.org/2000/svg" xmlns:xlink="http://www.w3.org/1999/xlink" width="30.999" height="20.999" viewBox="0 0 30.999 20.999">
  <defs>
    <clipPath id="clip-path">
      <rect id="Rectangle_356" data-name="Rectangle 356" width="30.999" height="20.999" transform="translate(0 0.001)" fill="none"/>
    </clipPath>
  </defs>
  <g id="youtube" transform="translate(0 -0.001)">
    <g id="Group_1036" data-name="Group 1036">
      <g id="Group_1035" data-name="Group 1035" clip-path="url(#clip-path)">
        <path id="Path_332" data-name="Path 332" d="M3.19,20.39A3.552,3.552,0,0,1,.811,18.154C-.22,15.415-.525,3.957,1.459,1.7A3.888,3.888,0,0,1,4.049.369C9.4-.185,25.915-.107,27.821.556A3.67,3.67,0,0,1,30.158,2.73c1.129,2.832,1.168,13.134-.148,15.86a3.568,3.568,0,0,1-1.677,1.636c-1.994,1.01-22.52,1-25.143.163m8.493-5.371c3.213-1.612,6.4-3.208,9.628-4.826L11.683,5.336Z" fill="#fff" fill-rule="evenodd"/>
      </g>
    </g>
  </g>
</svg>
